<?xml version="1.0" encoding="utf-8"?>
<!-- Generator: Adobe Illustrator 24.0.2, SVG Export Plug-In . SVG Version: 6.00 Build 0)  -->
<svg version="1.1" id="Layer_1" xmlns="http://www.w3.org/2000/svg" xmlns:xlink="http://www.w3.org/1999/xlink" x="0px" y="0px"
	 viewBox="0 0 59 46" style="enable-background:new 0 0 59 46;" xml:space="preserve">
<style type="text/css">
	.st0{fill:none;}
	.st1{fill:none;stroke:#666666;stroke-width:2;stroke-linecap:round;stroke-miterlimit:22.926;}
	.st2{fill:none;stroke:#666666;stroke-width:2;stroke-linecap:round;stroke-linejoin:round;stroke-miterlimit:22.926;}
	.st3{fill:#FFFFFF;stroke:#666666;stroke-width:2;stroke-linecap:round;stroke-miterlimit:22.926;}
</style>
<g id="Group_10424" transform="translate(-6211 105)">
	<rect id="Rectangle_3082" x="6211" y="-105" class="st0" width="59" height="46"/>
	<g id="Group_10420" transform="translate(4998.759 -334.325)">
		<path id="Path_1787" class="st1" d="M1236.9,234.6c-2.7-2.8-7.2-3-10.1-0.4c-2.9,2.6-3.2,7-0.8,10"/>
		<path id="Path_1788" class="st2" d="M1231.9,234.6v5.2l3.7-1.9"/>
		<ellipse id="Ellipse_12" class="st1" cx="1226.6" cy="264.4" rx="1.9" ry="1.9"/>
		<ellipse id="Ellipse_13" class="st1" cx="1226.6" cy="264.4" rx="7.9" ry="7.9"/>
		<path id="Path_1789" class="st1" d="M1218.7,263.6h-3.4v-7.9c0-5,3.8-7,9.7-7"/>
		<path id="Path_1790" class="st1" d="M1237.8,248.7c-1.8,3.5-1.7,6.1-0.8,8.2c0.4,1.1,1.3,2,2.4,2.5c2.8,1.2,8.2,0.8,9.4-2.8
			c1-2.2,1.4-4.6,1.3-7c-0.3-2.3-1-4.4-2.1-6.4c-1.9-2.9-2.5-4.8-2.4-6.1c0.2-1.7,2.1-2.8,3.6-3.4c2-0.9,3.4-0.4,4.2,1.5
			c1,2.4,0.1,3.7-2.5,3.8l2.7,3.2"/>
		<path id="Path_1791" class="st1" d="M1234.4,263.7l12.8,0c6.8,0,7.6-5.8,10.3-10.1c1.5-1.7,1.5-4.2,0.1-5.9"/>
		<line id="Line_171" class="st1" x1="1241.8" y1="237.2" x2="1249.4" y2="237.2"/>
		<path id="Path_1792" class="st1" d="M1258.3,252.5c5.3,1.7,7.9,3.6,8.2,5.8c-4.3-1.5-9-0.8-12.7,2"/>
		<path id="Path_1793" class="st1" d="M1265.5,258c2,1.5,3.2,3.9,3.2,6.4c0,4.4-3.5,7.9-7.9,7.9c0,0,0,0,0,0c-4.4,0-7.9-3.5-7.9-7.9
			c0-1.5,0.4-3,1.2-4.2"/>
		<ellipse id="Ellipse_14" class="st1" cx="1260.8" cy="264.4" rx="1.9" ry="1.9"/>
		<ellipse id="Ellipse_15" class="st1" cx="1255.9" cy="245" rx="1.5" ry="1.5"/>
		<path id="Rectangle_3080" class="st3" d="M1218.1,247.4h20.9c0.9,0,1.7,0.8,1.7,1.7v0c0,0.9-0.8,1.7-1.7,1.7h-20.9
			c-0.9,0-1.7-0.8-1.7-1.7v0C1216.4,248.2,1217.2,247.4,1218.1,247.4z"/>
	</g>
</g>
</svg>
