<?xml version="1.0" encoding="utf-8"?>
<!-- Generator: Adobe Illustrator 24.0.2, SVG Export Plug-In . SVG Version: 6.00 Build 0)  -->
<svg version="1.1" id="Layer_1" xmlns="http://www.w3.org/2000/svg" xmlns:xlink="http://www.w3.org/1999/xlink" x="0px" y="0px"
	 viewBox="0 0 59 46" style="enable-background:new 0 0 59 46;" xml:space="preserve">
<style type="text/css">
	.st0{fill:none;}
	.st1{fill:none;stroke:#666666;stroke-width:2;stroke-linecap:round;stroke-miterlimit:22.926;}
	
		.st2{fill-rule:evenodd;clip-rule:evenodd;fill:#FFFFFF;stroke:#666666;stroke-width:2;stroke-linecap:round;stroke-miterlimit:22.926;}
	.st3{fill:#FFFFFF;stroke:#666666;stroke-width:2;stroke-linecap:round;stroke-miterlimit:22.926;}
	.st4{fill:none;stroke:#666666;stroke-width:2;stroke-linecap:round;}
</style>
<g id="Group_10421" transform="translate(-6406 105)">
	<rect id="Rectangle_3085" x="6406" y="-105" class="st0" width="59" height="46"/>
	<g id="Group_10417" transform="translate(5248.966 -334.325)">
		<path id="Path_1781" class="st1" d="M1161,232.5l6.1-0.2c3-0.2,4.5,0.7,5.2,3.1l8.7,23.2c0.8,2.1,1.7,2.6,4.1,2.5h18.7
			c2.6,0.1,4-0.7,4.3-2.7l2.9-14.8c0.7-3.1-0.5-4.7-3.6-4.6h-25.3"/>
		<path id="Path_1782" class="st1" d="M1203.7,268.6h-25.6c-2.8,0-4.1-1.2-4-4.1c0.1-2.3,1.4-3.5,3.8-3.4l6.6,0.1"/>
		<path id="Path_1783" class="st2" d="M1185.4,272.2c1.7,0,3-1.4,3-3c0-1.7-1.4-3-3-3c-1.7,0-3,1.4-3,3
			C1182.4,270.9,1183.7,272.2,1185.4,272.2z"/>
		<ellipse id="Ellipse_8" class="st3" cx="1202.8" cy="268.9" rx="3" ry="3"/>
		<line id="Line_172" class="st4" x1="1183.9" y1="245.3" x2="1205.5" y2="245.3"/>
		<line id="Line_173" class="st4" x1="1185.6" y1="250.1" x2="1204.6" y2="250.1"/>
		<line id="Line_174" class="st4" x1="1187.3" y1="254.8" x2="1203.6" y2="254.8"/>
	</g>
</g>
</svg>
