<?xml version="1.0" encoding="utf-8"?>
<!-- Generator: Adobe Illustrator 24.0.2, SVG Export Plug-In . SVG Version: 6.00 Build 0)  -->
<svg version="1.1" id="Layer_1" xmlns="http://www.w3.org/2000/svg" xmlns:xlink="http://www.w3.org/1999/xlink" x="0px" y="0px"
	 viewBox="0 0 59 46" style="enable-background:new 0 0 59 46;" xml:space="preserve">
<style type="text/css">
	.st0{fill:none;}
	.st1{fill:none;stroke:#666666;stroke-width:2;stroke-linecap:round;stroke-miterlimit:22.926;}
	.st2{fill:#FFFFFF;}
</style>
<g id="Group_10422" transform="translate(-6340 105)">
	<rect id="Rectangle_3084" x="6340" y="-105" class="st0" width="59" height="46"/>
	<g id="Group_10418" transform="translate(4776 -156)">
		<g id="Group_10412" transform="translate(1580 54)">
			<ellipse id="Ellipse_9" class="st1" cx="13.1" cy="12.4" rx="4.9" ry="4.9"/>
			<path id="Path_1784" class="st1" d="M2.1,20.1C0.7,17.9,0,15.5,0,12.9C0,5.8,5.8,0,12.9,0c7.1,0,12.9,5.8,12.9,12.9
				c0,2.3-0.6,4.6-1.8,6.6"/>
			<path id="Path_1785" class="st1" d="M2.1,20.2L13,39.1l11-19.4"/>
			<ellipse id="Ellipse_16" class="st1" cx="13.1" cy="37.6" rx="13.1" ry="2.4"/>
		</g>
		<path id="Path_1794" class="st2" d="M1589.2,80.1l-1.4,1.8l5.2,9.8l6.3-11.6L1589.2,80.1z"/>
	</g>
</g>
</svg>
